<svg width="26" height="26" viewBox="0 0 26 26" fill="none" xmlns="http://www.w3.org/2000/svg">
    <rect width="26" height="26" rx="13" fill="#EDF4FF"/>
    <path d="M16.02 13.775C15.81 13.98 15.69 14.275 15.72 14.59C15.765 15.13 16.26 15.525 16.8 15.525H17.75V16.12C17.75 17.155 16.905 18 15.87 18H10.13C9.095 18 8.25 17.155 8.25 16.12V12.755C8.25 11.72 9.095 10.875 10.13 10.875H15.87C16.905 10.875 17.75 11.72 17.75 12.755V13.475H16.74C16.46 13.475 16.205 13.585 16.02 13.775Z" stroke="#4790FF" stroke-linecap="round" stroke-linejoin="round"/>
    <path d="M8.25 13.2056V10.9207C8.25 10.3257 8.615 9.79564 9.17 9.58564L13.14 8.08564C13.76 7.85064 14.425 8.31066 14.425 8.97566V10.8756" stroke="#4790FF" stroke-linecap="round" stroke-linejoin="round"/>
    <path d="M18.2794 13.9865V15.0166C18.2794 15.2916 18.0594 15.5166 17.7794 15.5266H16.7994C16.2594 15.5266 15.7644 15.1316 15.7194 14.5916C15.6894 14.2766 15.8094 13.9816 16.0194 13.7766C16.2044 13.5866 16.4594 13.4766 16.7394 13.4766H17.7794C18.0594 13.4866 18.2794 13.7115 18.2794 13.9865Z" stroke="#4790FF" stroke-linecap="round" stroke-linejoin="round"/>
    <path d="M10.5 13H14" stroke="#4790FF" stroke-linecap="round" stroke-linejoin="round"/>
</svg>
