<svg width="17" height="17" viewBox="0 0 17 17" fill="none" xmlns="http://www.w3.org/2000/svg">
    <path d="M8.49555 15.1667C12.1775 15.1667 15.1622 12.1819 15.1622 8.50001C15.1622 4.81811 12.1775 1.83334 8.49555 1.83334C4.81366 1.83334 1.82889 4.81811 1.82889 8.50001C1.82889 12.1819 4.81366 15.1667 8.49555 15.1667Z" stroke="#B7C3D6" stroke-linecap="round" stroke-linejoin="round"/>
    <path d="M5.82889 2.5H6.49555C5.19555 6.39333 5.19555 10.6067 6.49555 14.5H5.82889" stroke="#B7C3D6" stroke-linecap="round" stroke-linejoin="round"/>
    <path d="M10.4956 2.5C11.7956 6.39333 11.7956 10.6067 10.4956 14.5" stroke="#B7C3D6" stroke-linecap="round" stroke-linejoin="round"/>
    <path d="M2.49556 11.1667V10.5C6.38889 11.8 10.6022 11.8 14.4956 10.5V11.1667" stroke="#B7C3D6" stroke-linecap="round" stroke-linejoin="round"/>
    <path d="M2.49556 6.49999C6.38889 5.19999 10.6022 5.19999 14.4956 6.49999" stroke="#B7C3D6" stroke-linecap="round" stroke-linejoin="round"/>
</svg>
