<svg width="16" height="17" viewBox="0 0 16 17" fill="none" xmlns="http://www.w3.org/2000/svg">
    <path d="M14.5397 3.12658C13.513 5.68658 10.9397 9.16658 8.78635 10.8933L7.47302 11.9466C7.30635 12.0666 7.13969 12.1733 6.95302 12.2466C6.95302 12.1266 6.94635 11.9933 6.92635 11.8666C6.85302 11.3066 6.59969 10.7866 6.15302 10.3399C5.69969 9.88658 5.14635 9.61992 4.57969 9.54658C4.44635 9.53992 4.31302 9.52658 4.17969 9.53992C4.25302 9.33325 4.36635 9.13992 4.50635 8.97992L5.54635 7.66658C7.26635 5.51325 10.7597 2.92658 13.313 1.90658C13.7064 1.75992 14.0864 1.86658 14.3264 2.11325C14.5797 2.35992 14.6997 2.73992 14.5397 3.12658Z" stroke="#4790FF" stroke-width="1.5" stroke-linecap="round" stroke-linejoin="round"/>
    <path d="M6.95417 12.2485C6.95417 12.9818 6.67417 13.6818 6.1475 14.2152C5.74083 14.6218 5.1875 14.9018 4.5275 14.9885L2.8875 15.1685C1.99417 15.2685 1.2275 14.5085 1.33417 13.6018L1.51417 11.9618C1.67417 10.5018 2.89417 9.56849 4.1875 9.54182C4.32083 9.53516 4.46083 9.54182 4.5875 9.54849C5.15417 9.62182 5.7075 9.88182 6.16083 10.3418C6.6075 10.7885 6.86083 11.3085 6.93417 11.8685C6.94083 11.9952 6.95417 12.1218 6.95417 12.2485Z" stroke="#4790FF" stroke-width="1.5" stroke-linecap="round" stroke-linejoin="round"/>
    <path d="M9.49318 10.1455C9.49318 8.40552 8.07984 6.99219 6.33984 6.99219" stroke="#4790FF" stroke-width="1.5" stroke-linecap="round" stroke-linejoin="round"/>
</svg>
