<svg width="32" height="32" viewBox="0 0 32 32" fill="none" xmlns="http://www.w3.org/2000/svg">
    <rect width="32" height="32" rx="8" fill="#FAFAFC"/>
    <path d="M16 23.5C20.1421 23.5 23.5 20.1421 23.5 16C23.5 11.8579 20.1421 8.5 16 8.5C11.8579 8.5 8.5 11.8579 8.5 16C8.5 20.1421 11.8579 23.5 16 23.5Z" stroke="#575E6A" stroke-width="1.5" stroke-linecap="round" stroke-linejoin="round"/>
    <path d="M12.9992 9.25H13.7492C12.2867 13.63 12.2867 18.37 13.7492 22.75H12.9992" stroke="#575E6A" stroke-width="1.5" stroke-linecap="round" stroke-linejoin="round"/>
    <path d="M18.25 9.25C19.7125 13.63 19.7125 18.37 18.25 22.75" stroke="#575E6A" stroke-width="1.5" stroke-linecap="round" stroke-linejoin="round"/>
    <path d="M9.25 19V18.25C13.63 19.7125 18.37 19.7125 22.75 18.25V19" stroke="#575E6A" stroke-width="1.5" stroke-linecap="round" stroke-linejoin="round"/>
    <path d="M9.25 13.7492C13.63 12.2867 18.37 12.2867 22.75 13.7492" stroke="#575E6A" stroke-width="1.5" stroke-linecap="round" stroke-linejoin="round"/>
</svg>
