<svg width="32" height="32" viewBox="0 0 32 32" fill="none" xmlns="http://www.w3.org/2000/svg">
    <rect width="32" height="32" rx="8" fill="#FAFAFC"/>
    <path d="M22.8111 13.435V18.565C22.8111 19.405 22.3611 20.185 21.6336 20.6125L17.1786 23.185C16.4511 23.605 15.5511 23.605 14.8161 23.185L10.3611 20.6125C9.63359 20.1925 9.18359 19.4125 9.18359 18.565V13.435C9.18359 12.595 9.63359 11.815 10.3611 11.3875L14.8161 8.815C15.5436 8.395 16.4436 8.395 17.1786 8.815L21.6336 11.3875C22.3611 11.815 22.8111 12.5875 22.8111 13.435Z" stroke="#575E6A" stroke-width="1.5" stroke-linecap="round" stroke-linejoin="round"/>
    <path d="M16.0014 15.2489C16.9665 15.2489 17.7489 14.4665 17.7489 13.5014C17.7489 12.5363 16.9665 11.7539 16.0014 11.7539C15.0363 11.7539 14.2539 12.5363 14.2539 13.5014C14.2539 14.4665 15.0363 15.2489 16.0014 15.2489Z" stroke="#575E6A" stroke-width="1.5" stroke-linecap="round" stroke-linejoin="round"/>
    <path d="M19 19.4957C19 18.1457 17.6575 17.0508 16 17.0508C14.3425 17.0508 13 18.1457 13 19.4957" stroke="#575E6A" stroke-width="1.5" stroke-linecap="round" stroke-linejoin="round"/>
</svg>
