<svg width="32" height="32" viewBox="0 0 32 32" fill="none" xmlns="http://www.w3.org/2000/svg">
    <rect width="32" height="32" rx="8" fill="#FAFAFC"/>
    <path d="M24 21.064C24 21.352 23.9359 21.648 23.7997 21.936C23.6635 22.224 23.4872 22.496 23.2549 22.752C22.8623 23.184 22.4296 23.496 21.9409 23.696C21.4602 23.896 20.9394 24 20.3786 24C19.5613 24 18.688 23.808 17.7666 23.416C16.8453 23.024 15.9239 22.496 15.0105 21.832C14.0891 21.16 13.2158 20.416 12.3826 19.592C11.5573 18.76 10.8122 17.888 10.1472 16.976C9.49024 16.064 8.96144 15.152 8.57687 14.248C8.19229 13.336 8 12.464 8 11.632C8 11.088 8.09614 10.568 8.28843 10.088C8.48072 9.6 8.78518 9.152 9.20981 8.752C9.72258 8.248 10.2834 8 10.8763 8C11.1007 8 11.325 8.048 11.5253 8.144C11.7336 8.24 11.9179 8.384 12.0621 8.592L13.9209 11.208C14.0651 11.408 14.1693 11.592 14.2414 11.768C14.3135 11.936 14.3535 12.104 14.3535 12.256C14.3535 12.448 14.2974 12.64 14.1853 12.824C14.0811 13.008 13.9289 13.2 13.7366 13.392L13.1277 14.024C13.0396 14.112 12.9995 14.216 12.9995 14.344C12.9995 14.408 13.0075 14.464 13.0235 14.528C13.0476 14.592 13.0716 14.64 13.0876 14.688C13.2318 14.952 13.4802 15.296 13.8327 15.712C14.1933 16.128 14.5779 16.552 14.9945 16.976C15.4271 17.4 15.8438 17.792 16.2684 18.152C16.685 18.504 17.0295 18.744 17.302 18.888C17.342 18.904 17.3901 18.928 17.4462 18.952C17.5103 18.976 17.5744 18.984 17.6465 18.984C17.7827 18.984 17.8868 18.936 17.975 18.848L18.5839 18.248C18.7842 18.048 18.9765 17.896 19.1607 17.8C19.345 17.688 19.5293 17.632 19.7296 17.632C19.8818 17.632 20.0421 17.664 20.2183 17.736C20.3946 17.808 20.5789 17.912 20.7792 18.048L23.4311 19.928C23.6395 20.072 23.7837 20.24 23.8718 20.44C23.9519 20.64 24 20.84 24 21.064Z" stroke="#575E6A" stroke-width="1.5" stroke-miterlimit="10"/>
</svg>
