<svg width="18" height="23" viewBox="0 0 18 23" fill="none" xmlns="http://www.w3.org/2000/svg">
    <path d="M17 12.5044C17 17.5044 13.5 20.0044 9.34 21.4544C9.12216 21.5282 8.88554 21.5246 8.67 21.4444C4.5 20.0044 1 17.5044 1 12.5044V5.50436C1 5.23914 1.10536 4.98479 1.29289 4.79725C1.48043 4.60971 1.73478 4.50436 2 4.50436C4 4.50436 6.5 3.30436 8.24 1.78436C8.45185 1.60335 8.72135 1.50391 9 1.50391C9.27865 1.50391 9.54815 1.60335 9.76 1.78436C11.51 3.31436 14 4.50436 16 4.50436C16.2652 4.50436 16.5196 4.60971 16.7071 4.79725C16.8946 4.98479 17 5.23914 17 5.50436V12.5044Z" stroke="#4790FF" stroke-width="2" stroke-linecap="round" stroke-linejoin="round"/>
</svg>
