<svg width="14" height="15" viewBox="0 0 14 15" fill="none" xmlns="http://www.w3.org/2000/svg">
    <path d="M11.6673 8.0849C11.6673 11.0016 9.62565 12.4599 7.19898 13.3057C7.07191 13.3488 6.93388 13.3467 6.80815 13.2999C4.37565 12.4599 2.33398 11.0016 2.33398 8.0849V4.00156C2.33398 3.84685 2.39544 3.69848 2.50484 3.58909C2.61424 3.47969 2.76261 3.41823 2.91732 3.41823C4.08398 3.41823 5.54232 2.71823 6.55732 1.83156C6.6809 1.72598 6.83811 1.66797 7.00065 1.66797C7.16319 1.66797 7.3204 1.72598 7.44398 1.83156C8.46482 2.72406 9.91732 3.41823 11.084 3.41823C11.2387 3.41823 11.3871 3.47969 11.4965 3.58909C11.6059 3.69848 11.6673 3.84685 11.6673 4.00156V8.0849Z" stroke="#4790FF" stroke-linecap="round" stroke-linejoin="round"/>
    <path d="M5.25 7.4987L6.41667 8.66536L8.75 6.33203" stroke="#4790FF" stroke-linecap="round" stroke-linejoin="round"/>
</svg>
